HIERARCHY
ROOT pelvis
{
  OFFSET 0 100 0
  CHANNELS 6 Xposition Yposition Zposition Zrotation Xrotation Yrotation
  JOINT pelvis_right_femur
  {
    OFFSET -10.78128 -3.44521 -0.5502486
    CHANNELS 3 Zrotation Xrotation Yrotation
    JOINT right_femur_tibia
    {
      OFFSET -0.8047443 -44.0398 -0.1307829
      CHANNELS 3 Zrotation Xrotation Yrotation
      JOINT right_tibia_foot
      {
        OFFSET 3.006224 -47.83518 -5
        CHANNELS 3 Zrotation Xrotation Yrotation
        End Site
        {
          OFFSET 0 -5 15
        }
      }
    }
  }
  JOINT pelvis_left_femur
  {
    OFFSET 10.78128 -3.44521 -0.5502486
    CHANNELS 3 Zrotation Xrotation Yrotation
    JOINT left_femur_tibia
    {
      OFFSET 0.8047443 -44.0398 -0.1307829
      CHANNELS 3 Zrotation Xrotation Yrotation
      JOINT left_tibia_foot
      {
        OFFSET -4.370144 -48.10324 -4.275266
        CHANNELS 3 Zrotation Xrotation Yrotation
        End Site
        {
          OFFSET 0 -5 15
        }
      }
    }
  }
  JOINT pelvis_spine1
  {
    OFFSET 0 6.468898 -3.129235
    CHANNELS 3 Zrotation Xrotation Yrotation
    JOINT spine1
    {
      OFFSET 0 23.15396 4.99043
      CHANNELS 3 Zrotation Xrotation Yrotation
      JOINT spine2
      {
        OFFSET 0 20.79997 -5.064912
        CHANNELS 3 Zrotation Xrotation Yrotation
        JOINT neck
        {
          OFFSET 0 14.38658 9.616178
          CHANNELS 3 Zrotation Xrotation Yrotation
          End Site
          {
            OFFSET 0 20 0
          }
        }
      }
      JOINT right_manubrium
      {
        OFFSET -5.722621 16.35077 3.967754
        CHANNELS 3 Zrotation Xrotation Yrotation
        JOINT right_clavicle
        {
          OFFSET -13.16364 1.694482 -4.693211
          CHANNELS 3 Zrotation Xrotation Yrotation
          JOINT right_humerus
          {
            OFFSET -28.5034 -0.3100689 -2.792744
            CHANNELS 3 Zrotation Xrotation Yrotation
            JOINT right_radius
            {
              OFFSET -25.15693 0.02248979 -1.271978
              CHANNELS 3 Zrotation Xrotation Yrotation
              End Site
              {
                OFFSET -15 0 0
              }
            }
          }
        }
      }
      JOINT left_manubrium
      {
        OFFSET 5.722621 16.35077 3.967754
        CHANNELS 3 Zrotation Xrotation Yrotation
        JOINT left_clavicle
        {
          OFFSET 13.16364 1.694482 -4.693211
          CHANNELS 3 Zrotation Xrotation Yrotation
          JOINT left_humerus
          {
            OFFSET 29.39168 -1.063119 -2.237045
            CHANNELS 3 Zrotation Xrotation Yrotation
            JOINT left_radius
            {
              OFFSET 24.59957 -0.9528479 0.9047498
              CHANNELS 3 Zrotation Xrotation Yrotation
              End Site
              {
                OFFSET 15 -0 -0
              }
            }
          }
        }
      }
    }
  }
}
MOTION
Frames: 21
Frame Time: 0.0416666666667
-1224.267 98.29256 -227.0247 6.937616 7.90069 134.9817 5.696987 -12.18238 -7.17803 -0 7.781346 -0 -12.97065 7.596063 0.03864499 -4.055044 9.166086 -4.009192 -0 47.38205 -0 3.360735 -9.76627 14.70111 0.7128848 -4.023036 4.189093 0.2268011 16.53779 -8.281499 0.8586843 23.29933 4.392925 3.775424 -17.25757 3.606861 -4.224743 -20.85565 12.13539 96.74635 13.07379 -24.01014 -0 0 8.435933 -24.97786 9.834138 7.57068 6.352627 -30.11752 -11.27787 -85.77099 9.742007 12.38315 0 0 -26.10698 17.42952 16.38987 -10.22343
-1219.73 99.1958 -231.2251 7.730548 8.066136 133.8981 6.281922 -8.530205 -5.691317 -0 9.094316 -0 -13.23908 6.043476 -0.5794044 -3.000106 5.314318 -4.028669 -0 51.6988 -0 3.287627 -7.486971 14.89113 0.9787547 -3.832844 4.790861 0.1837577 17.04777 -7.993476 1.110109 23.17696 3.964412 3.494812 -17.54812 3.685478 -4.258491 -21.81942 12.37555 96.56119 12.78936 -23.06456 -0 0 10.22043 -24.65358 10.57695 7.664525 5.485106 -29.52491 -11.49089 -87.18769 10.431 15.4471 0 0 -22.76246 16.45418 16.62661 -8.695777
-1215.348 100.0803 -235.2155 8.59189 8.557436 132.752 6.490103 -4.470296 -4.837714 -0 9.585931 -0 -13.18209 4.549619 -1.124183 -2.000792 1.493365 -3.834512 -0 52.91445 -0 3.388452 -5.788751 15.36437 1.025272 -3.665963 5.342516 0.08122416 17.60183 -7.595535 1.359357 23.13713 3.464479 3.127449 -17.55643 3.687995 -4.450016 -23.03724 12.64717 96.42225 11.96698 -21.79592 -0 0 11.96589 -24.89382 11.37984 8.23251 4.716272 -28.9859 -11.83281 -88.40944 10.84272 18.24053 0 0 -19.94429 15.39616 16.91157 -7.283997
-1211.101 100.8403 -239.0703 9.45364 9.090251 131.5889 6.585241 -0.4082798 -4.312794 -0 9.782997 -0 -12.82429 3.212322 -1.602423 -1.004222 -2.070779 -3.43339 -0 51.59088 -0 3.633545 -4.469648 15.92967 1.024285 -3.62668 5.852847 -0.03716801 18.23991 -7.230103 1.559909 22.99764 2.897554 2.696548 -17.39972 3.570654 -4.685645 -24.54758 12.92395 96.26511 10.78939 -20.34809 -0 0 13.98488 -25.46827 12.21517 9.113326 4.054733 -28.52211 -12.23114 -89.51185 10.86392 20.97986 0 0 -17.54515 14.26097 17.08479 -5.954484
-1206.967 101.4113 -242.8711 10.26198 9.477041 130.4432 6.692609 3.434635 -3.909059 -0 10.04991 -0 -12.22213 1.953884 -2.026592 0.04629036 -5.314974 -2.89999 -0 48.15978 -0 3.942254 -3.368972 16.44077 1.074619 -3.731775 6.324453 -0.1349307 18.94029 -6.957762 1.694346 22.67049 2.290845 2.219825 -17.18823 3.353352 -4.865038 -26.33502 13.19824 96.02555 9.448263 -18.78486 -0 0 16.42345 -26.19898 13.09673 10.21462 3.472396 -28.09145 -12.62001 -90.57681 10.54576 23.84896 0 0 -15.38579 13.00024 17.10266 -4.590359
-1202.923 101.749 -246.6969 10.96497 9.606365 129.3458 6.839586 6.944006 -3.519694 -0 10.63086 -0 -11.43192 0.6097371 -2.399868 1.160873 -8.188725 -2.356984 -0 42.81045 -0 4.18721 -2.42075 16.81549 1.220787 -3.951041 6.736707 -0.189736 19.60716 -6.776912 1.763247 22.15264 1.685306 1.710683 -16.99071 3.090812 -4.920162 -28.3161 13.4507 95.63627 8.114162 -17.10525 -0 0 19.28186 -26.93125 14.0001 11.47617 2.954864 -27.60001 -12.91449 -91.671 10.03371 26.91705 0 0 -13.295 11.54807 16.98579 -3.065143
-1198.947 101.8322 -250.6211 11.49373 9.401106 128.3271 7.009711 9.991911 -3.088464 -0 11.70304 -0 -10.54242 -0.9492047 -2.701943 2.298904 -10.61923 -1.930392 -0 35.79576 -0 4.244879 -1.596352 16.99105 1.476325 -4.245739 7.067785 -0.1867809 20.12647 -6.675537 1.764852 21.47217 1.137901 1.206437 -16.83668 2.830718 -4.783288 -30.35335 13.65999 95.01872 6.989397 -15.32915 -0 0 22.46829 -27.51758 14.87354 12.81275 2.507894 -26.97718 -13.02917 -92.82953 9.452765 30.15798 0 0 -11.16374 9.890083 16.75137 -1.31542
-1195.014 101.6693 -254.7054 11.77129 8.83687 127.4147 7.141556 12.41187 -2.604005 -0 13.38054 -0 -9.700181 -2.752147 -2.888215 3.350719 -12.49661 -1.753503 -0 27.66364 -0 4.004164 -0.8896696 16.92544 1.817118 -4.565425 7.298937 -0.1248839 20.37389 -6.629591 1.695714 20.70133 0.7321777 0.7861877 -16.70901 2.612608 -4.391489 -32.22445 13.80266 94.0983 6.320183 -13.53606 -0 0 25.7432 -27.81 15.6228 14.07951 2.156276 -26.19851 -12.89646 -94.03649 8.907274 33.41412 0 0 -8.967929 8.105409 16.41521 0.6207935
-1191.091 101.3065 -258.9869 11.74302 7.999226 126.6271 7.111504 14.05228 -2.120287 -0 15.69443 -0 -9.119687 -4.640639 -2.889731 4.114482 -13.70465 -1.973282 -0 19.47953 -0 3.371656 -0.324557 16.64342 2.160601 -4.825 7.41273 -0.04016681 20.21468 -6.56872 1.56391 19.99973 0.586937 0.5820371 -16.52885 2.481523 -3.718882 -33.58007 13.84408 92.84653 6.386234 -11.86732 -0 0 28.63027 -27.68582 16.08319 15.06176 1.950624 -25.28753 -12.48609 -95.20207 8.515728 36.32466 0 0 -6.783113 6.410665 16.02243 2.555734
-1187.142 100.8299 -263.4628 11.43708 7.14645 125.9667 6.744638 14.90915 -1.783655 -0 18.5823 -0 -9.037076 -6.142502 -2.617097 4.322552 -14.20099 -2.714764 -0 12.82163 -0 2.320667 0.03464039 16.30432 2.363024 -4.896397 7.390259 -0.03641015 19.55553 -6.34433 1.408983 19.62737 0.8287992 0.7526892 -16.16232 2.493476 -2.832604 -33.99292 13.73692 91.36518 7.402652 -10.47421 -0 0 30.44093 -27.16547 16.03952 15.5509 1.968231 -24.31132 -11.84493 -96.14968 8.412687 38.31262 0 0 -4.783134 5.171374 15.68564 4.115288
-1183.129 100.3546 -268.0852 11.01844 6.656292 125.422 5.908449 15.23603 -1.799126 -0 21.95795 -0 -9.566577 -6.493979 -1.981776 3.777704 -14.06854 -4.0171 -0 9.105667 -0 0.9710727 0.08399616 16.19877 2.288728 -4.656886 7.201906 -0.2708941 18.45055 -5.767094 1.314544 19.84229 1.497081 1.37269 -15.51508 2.704999 -1.920345 -33.1958 13.45137 89.94636 9.308047 -9.39968 -0 0 30.59679 -26.56992 15.37187 15.54073 2.277142 -23.34124 -11.12106 -96.67129 8.695691 38.79056 0 0 -3.162232 4.766986 15.59284 4.841727
-1179.037 99.9999 -272.7784 10.73261 6.767105 124.9846 4.671748 15.37674 -2.267398 -0 25.78159 -0 -10.55318 -5.095795 -0.9731999 2.553408 -13.43075 -5.767999 -0 8.477558 -0 -0.3875052 -0.2636397 16.5492 1.938777 -4.099876 6.817532 -0.8315654 17.16467 -4.778396 1.371767 20.6742 2.437788 2.298103 -14.68335 3.131812 -1.20069 -31.39914 13.0391 88.95625 11.61201 -8.54316 -0 0 29.14831 -26.41576 14.25988 15.32888 2.849601 -22.41785 -10.51277 -96.67013 9.330014 37.61283 0 0 -2.018344 5.297376 15.89292 4.513161
-1174.879 99.85238 -277.4666 10.73153 7.372522 124.6585 3.323379 15.38065 -3.050647 -0 29.91463 -0 -11.64005 -2.14362 0.2367958 1.021753 -12.34837 -7.662115 -0 9.686836 -0 -1.436362 -0.9698775 17.26719 1.474858 -3.380098 6.26295 -1.60821 16.05674 -3.593934 1.588765 21.83014 3.364085 3.225974 -13.91222 3.690084 -0.7716575 -29.26032 12.641 88.57915 13.60734 -7.845721 -0 0 26.84868 -26.93508 13.10395 15.2471 3.525812 -21.604 -10.16892 -96.23992 10.1125 35.31646 0 0 -1.378751 6.44164 16.50173 3.392925
-1170.7 99.93289 -282.09 10.99162 8.18521 124.4462 2.144881 14.97975 -3.917491 -0 33.96948 -0 -12.52493 1.480525 1.36438 -0.4087083 -10.88068 -9.322164 -0 11.29928 -0 -2.028903 -1.860451 18.03833 1.072404 -2.692377 5.637312 -2.380427 15.36084 -2.546949 1.869025 22.93421 4.074064 3.940955 -13.34213 4.21797 -0.5843342 -27.40408 12.38802 88.73731 14.84188 -7.404406 -0 0 24.54019 -27.89827 12.18913 15.36549 4.132151 -21.02626 -10.14355 -95.54573 10.78218 32.69415 0 0 -1.315292 7.737963 17.14646 1.990195
-1166.552 100.1955 -286.6069 11.4055 8.995684 124.3368 1.238572 13.9429 -4.760874 -0 37.49248 -0 -13.09487 4.957344 2.227771 -1.537534 -9.128181 -10.54633 -0 12.56008 -0 -2.213247 -2.777047 18.62125 0.8069495 -2.138193 5.030524 -3.008625 15.09765 -1.822278 2.11329 23.7953 4.54017 4.409864 -12.94436 4.602225 -0.5486497 -26.07255 12.31803 89.24429 15.29741 -7.312482 -0 0 22.62975 -28.99467 11.58023 15.5873 4.60481 -20.77994 -10.40616 -94.68512 11.19227 30.20463 0 0 -1.904996 8.928213 17.6427 0.6274844
-1162.477 100.5582 -290.9901 11.86593 9.705894 124.3095 0.5789554 12.21699 -5.594022 -0 40.15268 -0 -13.36229 7.86929 2.79832 -2.354975 -7.177334 -11.34134 -0 13.28786 -0 -2.102762 -3.677967 18.94698 0.6690429 -1.725592 4.473304 -3.459655 15.15394 -1.435058 2.282429 24.40524 4.825102 4.68452 -12.66029 4.833348 -0.606457 -25.20281 12.39355 89.93623 15.19511 -7.565652 -0 0 21.12171 -30.06668 11.23361 15.82471 4.970535 -20.869 -10.86784 -93.68219 11.35129 27.89845 0 0 -3.159069 9.979518 17.97663 -0.6348951
-1158.495 100.9314 -295.2227 12.27746 10.26478 124.3396 0.1067855 9.830659 -6.456861 -0 41.72201 -0 -13.37909 10.06432 3.11679 -2.922174 -5.083668 -11.78073 -0 13.55212 -0 -1.783554 -4.59383 19.02902 0.6139247 -1.433439 3.969802 -3.736292 15.3976 -1.347409 2.370119 24.81197 5.001211 4.826474 -12.46393 4.944788 -0.7207936 -24.63964 12.55952 90.69259 14.79776 -8.129849 -0 0 19.87155 -31.05138 11.08845 16.02149 5.278939 -21.262 -11.42626 -92.52977 11.31915 25.66111 0 0 -5.057385 10.95174 18.19168 -1.851837
-1154.607 101.232 -299.2966 12.55255 10.63527 124.4029 -0.2323882 6.823441 -7.379571 -0 42.01714 -0 -13.20411 11.5063 3.240793 -3.308673 -2.888792 -11.92258 -0 13.50506 -0 -1.303415 -5.571365 18.89368 0.5893546 -1.246344 3.527832 -3.842739 15.72718 -1.527678 2.374578 25.0524 5.125546 4.891244 -12.34784 4.962458 -0.8556625 -24.24161 12.77145 91.42204 14.33997 -8.990096 -0 0 18.73358 -31.91102 11.09789 16.13123 5.575521 -21.93844 -11.99269 -91.2158 11.12877 23.3697 0 0 -7.586143 11.92026 18.31553 -3.101809
-1150.794 101.3915 -303.2115 12.60845 10.78258 124.4769 -0.4776483 3.245354 -8.376144 -0 40.87959 -0 -12.89577 12.21374 3.230944 -3.578988 -0.6332971 -11.8 -0 13.32808 -0 -0.6910084 -6.660563 18.56869 0.5442735 -1.15797 3.162392 -3.779585 16.06499 -1.95417 2.294251 25.14472 5.238774 4.925696 -12.31716 4.900512 -0.9757301 -23.89397 12.99329 92.05367 14.02127 -10.14729 -0 0 17.59141 -32.60301 11.22542 16.1074 5.900612 -22.88453 -12.48464 -89.74417 10.78487 20.9344 0 0 -10.72127 12.94846 18.35266 -4.455286
-1147.013 101.3626 -306.9766 12.3719 10.67622 124.5413 -0.6480851 -0.8129764 -9.440486 -0 38.196 -0 -12.51216 12.2538 3.146893 -3.792025 1.635822 -11.42787 -0 13.22278 -0 0.02372041 -7.910213 18.08846 0.4332692 -1.167261 2.891977 -3.54739 16.34469 -2.604264 2.130758 25.09587 5.366482 4.966473 -12.38805 4.76793 -1.053449 -23.5045 13.19069 92.54092 13.99807 -11.60162 -0 0 16.3579 -33.06883 11.43264 15.90156 6.289802 -24.07551 -12.81864 -88.15417 10.28348 18.31791 0 0 -14.39067 14.07055 18.29276 -5.954396
-1143.203 101.1256 -310.6131 11.79884 10.30682 124.5766 -0.7406479 -5.179394 -10.54432 -0 33.95883 -0 -12.1138 11.7714 3.044592 -4.00138 3.866066 -10.81028 -0 13.4077 -0 0.7944439 -9.355636 17.49963 0.223913 -1.274144 2.731755 -3.155595 16.51054 -3.439881 1.893059 24.91398 5.518376 5.03705 -12.58153 4.574012 -1.081304 -23.00675 13.32904 92.87885 14.35107 -13.33456 -0 0 14.97176 -33.24404 11.66763 15.4718 6.768198 -25.4597 -12.92062 -86.53195 9.633884 15.5547 0 0 -18.44006 15.27564 18.12376 -7.591979
